<svg width="122" height="166" viewBox="0 0 122 166" fill="none" xmlns="http://www.w3.org/2000/svg">
<rect width="5" height="166" fill="white"/>
<rect x="5" y="161" width="117" height="5" fill="white"/>
<rect x="5" y="117" width="117" height="5" fill="white"/>
<rect x="117" width="5" height="161" fill="white"/>
<rect x="5" width="112" height="5" fill="white"/>
<rect x="30" y="122" width="4" height="39" fill="white"/>
<rect x="12" y="122" width="11" height="34" fill="white"/>
<rect x="41" y="127" width="18" height="29" fill="white"/>
<rect x="63" y="144" width="18" height="12" fill="white"/>
<rect x="99" y="144" width="18" height="12" fill="white"/>
<rect x="99" y="127" width="18" height="12" fill="white"/>
<rect x="70" y="127" width="18" height="12" fill="white"/>
<rect x="88" y="122" width="4" height="39" fill="white"/>
<rect x="59" y="122" width="4" height="39" fill="white"/>
<rect x="27" y="5" width="21" height="112" fill="white"/>
<rect x="5" y="28" width="112" height="21" fill="white"/>
</svg>
